<?xml version="1.0" encoding="UTF-8" standalone="no"?><svg xmlns="http://www.w3.org/2000/svg" xmlns:xlink="http://www.w3.org/1999/xlink" contentScriptType="application/ecmascript" contentStyleType="text/css" height="652px" preserveAspectRatio="none" style="width:1869px;height:652px;" version="1.1" viewBox="0 0 1869 652" width="1869px" zoomAndPan="magnify"><defs/><g><!--cluster Dependencies--><path d="M1727.96,290 L1821.96,290 A4.5,4.5 0 0 1 1824.96,293 L1831.96,310.4844 L1854.96,310.4844 A3,3 0 0 1 1857.96,313.4844 L1857.96,428 A3,3 0 0 1 1854.96,431 L1727.96,431 A3,3 0 0 1 1724.96,428 L1724.96,293 A3,3 0 0 1 1727.96,290 " fill="#FFFFFF" style="stroke: #000000; stroke-width: 1.5;"/><line style="stroke: #000000; stroke-width: 1.5;" x1="1724.96" x2="1831.96" y1="310.4844" y2="310.4844"/><text fill="#000000" font-family="Tahoma, sans-serif" font-size="12" font-weight="bold" lengthAdjust="spacingAndGlyphs" textLength="94" x="1728.96" y="304.0059">Dependencies</text><!--entity compress-tag--><rect fill="#F8F8F8" height="34.4844" rx="3" ry="3" style="stroke: #383838; stroke-width: 1.0;" width="101" x="1740.96" y="323"/><rect fill="#F8F8F8" height="5" style="stroke: #383838; stroke-width: 1.0;" width="10" x="1735.96" y="328"/><rect fill="#F8F8F8" height="5" style="stroke: #383838; stroke-width: 1.0;" width="10" x="1735.96" y="347.4844"/><text fill="#000000" font-family="Tahoma, sans-serif" font-size="12" lengthAdjust="spacingAndGlyphs" textLength="81" x="1750.96" y="345.0059">compress-tag</text><!--entity simplur--><rect fill="#F8F8F8" height="34.4844" rx="3" ry="3" style="stroke: #383838; stroke-width: 1.0;" width="62" x="1760.46" y="381"/><rect fill="#F8F8F8" height="5" style="stroke: #383838; stroke-width: 1.0;" width="10" x="1755.46" y="386"/><rect fill="#F8F8F8" height="5" style="stroke: #383838; stroke-width: 1.0;" width="10" x="1755.46" y="405.4844"/><text fill="#000000" font-family="Tahoma, sans-serif" font-size="12" lengthAdjust="spacingAndGlyphs" textLength="42" x="1770.46" y="403.0059">simplur</text><!--entity _Color_d--><rect fill="#F8F8F8" height="34.4844" rx="3" ry="3" style="stroke: #000000; stroke-width: 0.5;" width="68" x="113.464" y="17"/><text fill="#000000" font-family="Tahoma, sans-serif" font-size="12" font-weight="bold" lengthAdjust="spacingAndGlyphs" textLength="48" x="123.464" y="39.0059">Color.d</text><ellipse cx="1637.4503" cy="402.9981" fill="#F8F8F8" rx="55.4903" ry="13.4981" style="stroke: #383838; stroke-width: 0.5;"/><text fill="#000000" font-family="Tahoma, sans-serif" font-size="12" lengthAdjust="spacingAndGlyphs" textLength="76" x="1599.4503" y="406.7402">ColorGroup.d</text><ellipse cx="147.4395" cy="97.9951" fill="#F8F8F8" rx="100.4755" ry="22.4951" style="stroke: #383838; stroke-width: 0.5;"/><text fill="#000000" font-family="Tahoma, sans-serif" font-size="12" font-weight="bold" lengthAdjust="spacingAndGlyphs" textLength="181" x="56.9395" y="101.7373">compress.transformation.d</text><ellipse cx="1252.3845" cy="224.0849" fill="#F8F8F8" rx="80.9245" ry="18.5849" style="stroke: #383838; stroke-width: 0.5;"/><text fill="#000000" font-family="Tahoma, sans-serif" font-size="12" font-weight="bold" lengthAdjust="spacingAndGlyphs" textLength="138" x="1183.3845" y="227.8271">compress/compress</text><ellipse cx="147.248" cy="164.1568" fill="#F8F8F8" rx="86.284" ry="19.6568" style="stroke: #383838; stroke-width: 0.5;"/><text fill="#000000" font-family="Tahoma, sans-serif" font-size="12" font-weight="bold" lengthAdjust="spacingAndGlyphs" textLength="150" x="72.248" y="167.899">compress/compress.d</text><ellipse cx="1252.556" cy="367.1192" fill="#F8F8F8" rx="113.596" ry="25.1192" style="stroke: #383838; stroke-width: 0.5;"/><text fill="#000000" font-family="Tahoma, sans-serif" font-size="12" lengthAdjust="spacingAndGlyphs" textLength="209" x="1148.056" y="370.8614">compress/compress.transformation</text><ellipse cx="147.2483" cy="221.242" fill="#F8F8F8" rx="31.2843" ry="13.242" style="stroke: #383838; stroke-width: 0.5;"/><text fill="#000000" font-family="Tahoma, sans-serif" font-size="12" font-weight="bold" lengthAdjust="spacingAndGlyphs" textLength="40" x="127.2483" y="224.9842">Group</text><ellipse cx="147.2336" cy="271.242" fill="#F8F8F8" rx="39.7696" ry="13.242" style="stroke: #383838; stroke-width: 0.5;"/><text fill="#000000" font-family="Tahoma, sans-serif" font-size="12" font-weight="bold" lengthAdjust="spacingAndGlyphs" textLength="52" x="121.2336" y="274.9842">Group.d</text><ellipse cx="147.6156" cy="332.9303" fill="#F8F8F8" rx="112.6516" ry="24.9303" style="stroke: #383838; stroke-width: 0.5;"/><text fill="#000000" font-family="Tahoma, sans-serif" font-size="12" font-weight="bold" lengthAdjust="spacingAndGlyphs" textLength="207" x="44.1156" y="336.6725">helper/linebreak-handler.helper</text><ellipse cx="429.7961" cy="34.0664" fill="#F8F8F8" rx="118.3321" ry="26.0664" style="stroke: #383838; stroke-width: 0.5;"/><text fill="#000000" font-family="Tahoma, sans-serif" font-size="12" font-weight="bold" lengthAdjust="spacingAndGlyphs" textLength="219" x="320.2961" y="37.8086">helper/linebreak-handler.helper.d</text><ellipse cx="147.6625" cy="580.242" fill="#F8F8F8" rx="32.6985" ry="13.242" style="stroke: #383838; stroke-width: 0.5;"/><text fill="#000000" font-family="Tahoma, sans-serif" font-size="12" lengthAdjust="spacingAndGlyphs" textLength="42" x="126.6625" y="583.9842">helpers</text><ellipse cx="430.0118" cy="422.0096" fill="#F8F8F8" rx="65.5478" ry="15.5096" style="stroke: #383838; stroke-width: 0.5;"/><text fill="#000000" font-family="Tahoma, sans-serif" font-size="12" font-weight="bold" lengthAdjust="spacingAndGlyphs" textLength="102" x="379.0118" y="425.7518">helpers/index.d</text><ellipse cx="429.8989" cy="110.187" fill="#F8F8F8" rx="116.4349" ry="25.687" style="stroke: #383838; stroke-width: 0.5;"/><text fill="#000000" font-family="Tahoma, sans-serif" font-size="12" font-weight="bold" lengthAdjust="spacingAndGlyphs" textLength="215" x="322.3989" y="113.9292">helpers/linebreak-handler.helper</text><ellipse cx="430.1004" cy="186.8273" fill="#F8F8F8" rx="122.1364" ry="26.8273" style="stroke: #383838; stroke-width: 0.5;"/><text fill="#000000" font-family="Tahoma, sans-serif" font-size="12" font-weight="bold" lengthAdjust="spacingAndGlyphs" textLength="227" x="316.6004" y="190.5695">helpers/linebreak-handler.helper.d</text><ellipse cx="147.5451" cy="529.1648" fill="#F8F8F8" rx="15.0811" ry="12.6648" style="stroke: #383838; stroke-width: 0.5;"/><text fill="#000000" font-family="Tahoma, sans-serif" font-size="12" font-weight="bold" lengthAdjust="spacingAndGlyphs" textLength="16" x="139.5451" y="532.907">lib</text><ellipse cx="429.9259" cy="251.242" fill="#F8F8F8" rx="48.9619" ry="13.242" style="stroke: #383838; stroke-width: 0.5;"/><text fill="#000000" font-family="Tahoma, sans-serif" font-size="12" font-weight="bold" lengthAdjust="spacingAndGlyphs" textLength="65" x="397.4259" y="254.9842">lib/colors</text><ellipse cx="429.8174" cy="302.0707" fill="#F8F8F8" rx="55.8534" ry="13.5707" style="stroke: #383838; stroke-width: 0.5;"/><text fill="#000000" font-family="Tahoma, sans-serif" font-size="12" font-weight="bold" lengthAdjust="spacingAndGlyphs" textLength="77" x="391.3174" y="305.8129">lib/colors.d</text><ellipse cx="1473.9445" cy="275.8969" fill="#F8F8F8" rx="59.9845" ry="14.3969" style="stroke: #383838; stroke-width: 0.5;"/><text fill="#000000" font-family="Tahoma, sans-serif" font-size="12" font-weight="bold" lengthAdjust="spacingAndGlyphs" textLength="88" x="1429.9445" y="279.6391">lib/compress</text><ellipse cx="430.1992" cy="354.847" fill="#F8F8F8" rx="64.7352" ry="15.347" style="stroke: #383838; stroke-width: 0.5;"/><text fill="#000000" font-family="Tahoma, sans-serif" font-size="12" font-weight="bold" lengthAdjust="spacingAndGlyphs" textLength="100" x="380.1992" y="358.5892">lib/compress.d</text><ellipse cx="996.7544" cy="444.242" fill="#F8F8F8" rx="51.7904" ry="13.242" style="stroke: #383838; stroke-width: 0.5;"/><text fill="#000000" font-family="Tahoma, sans-serif" font-size="12" font-weight="bold" lengthAdjust="spacingAndGlyphs" textLength="69" x="962.2544" y="447.9842">lib/index.d</text><ellipse cx="1474.0077" cy="578.242" fill="#F8F8F8" rx="47.5477" ry="13.242" style="stroke: #383838; stroke-width: 0.5;"/><text fill="#000000" font-family="Tahoma, sans-serif" font-size="12" lengthAdjust="spacingAndGlyphs" textLength="63" x="1442.5077" y="581.9842">lib/regexps</text><ellipse cx="727.235" cy="33.8542" fill="#F8F8F8" rx="54.771" ry="13.3542" style="stroke: #383838; stroke-width: 0.5;"/><text fill="#000000" font-family="Tahoma, sans-serif" font-size="12" font-weight="bold" lengthAdjust="spacingAndGlyphs" textLength="74" x="690.235" y="37.5964">lib/simplify</text><ellipse cx="727.6799" cy="86.2432" fill="#F8F8F8" rx="59.2159" ry="14.2432" style="stroke: #383838; stroke-width: 0.5;"/><text fill="#000000" font-family="Tahoma, sans-serif" font-size="12" font-weight="bold" lengthAdjust="spacingAndGlyphs" textLength="86" x="684.6799" y="89.9854">lib/simplify.d</text><ellipse cx="727.2643" cy="140.7601" fill="#F8F8F8" rx="71.8003" ry="16.7601" style="stroke: #383838; stroke-width: 0.5;"/><text fill="#000000" font-family="Tahoma, sans-serif" font-size="12" font-weight="bold" lengthAdjust="spacingAndGlyphs" textLength="117" x="668.7643" y="144.5022">linebreak.helper.d</text><ellipse cx="727.6608" cy="203.9394" fill="#F8F8F8" rx="97.6968" ry="21.9394" style="stroke: #383838; stroke-width: 0.5;"/><text fill="#000000" font-family="Tahoma, sans-serif" font-size="12" font-weight="bold" lengthAdjust="spacingAndGlyphs" textLength="175" x="640.1608" y="207.6815">linebreak.transformation.d</text><ellipse cx="727.6242" cy="277.232" fill="#F8F8F8" rx="121.6602" ry="26.732" style="stroke: #383838; stroke-width: 0.5;"/><text fill="#000000" font-family="Tahoma, sans-serif" font-size="12" font-weight="bold" lengthAdjust="spacingAndGlyphs" textLength="226" x="614.6242" y="280.9742">linebreak/linebreak-handler.helper</text><ellipse cx="727.3514" cy="355.8775" fill="#F8F8F8" rx="127.3874" ry="27.8775" style="stroke: #383838; stroke-width: 0.5;"/><text fill="#000000" font-family="Tahoma, sans-serif" font-size="12" font-weight="bold" lengthAdjust="spacingAndGlyphs" textLength="238" x="608.3514" y="359.6197">linebreak/linebreak-handler.helper.d</text><ellipse cx="430.004" cy="581.208" fill="#F8F8F8" rx="84.04" ry="19.208" style="stroke: #383838; stroke-width: 0.5;"/><text fill="#000000" font-family="Tahoma, sans-serif" font-size="12" lengthAdjust="spacingAndGlyphs" textLength="145" x="357.504" y="584.9502">linebreak/linebreak.helper</text><ellipse cx="1252.4671" cy="586.8014" fill="#F8F8F8" rx="107.0071" ry="23.8014" style="stroke: #383838; stroke-width: 0.5;"/><text fill="#000000" font-family="Tahoma, sans-serif" font-size="12" lengthAdjust="spacingAndGlyphs" textLength="195" x="1154.9671" y="590.5436">linebreak/linebreak.transformation</text><ellipse cx="997.1896" cy="34.2451" fill="#F8F8F8" rx="91.7256" ry="20.7451" style="stroke: #383838; stroke-width: 0.5;"/><text fill="#000000" font-family="Tahoma, sans-serif" font-size="12" font-weight="bold" lengthAdjust="spacingAndGlyphs" textLength="162" x="916.1896" y="37.9873">prettify.transformation.d</text><ellipse cx="1473.7875" cy="452.8655" fill="#F8F8F8" rx="57.3275" ry="13.8655" style="stroke: #383838; stroke-width: 0.5;"/><text fill="#000000" font-family="Tahoma, sans-serif" font-size="12" lengthAdjust="spacingAndGlyphs" textLength="81" x="1433.2875" y="456.6077">prettify/colors</text><ellipse cx="996.9812" cy="95.0034" fill="#F8F8F8" rx="68.0172" ry="16.0034" style="stroke: #383838; stroke-width: 0.5;"/><text fill="#000000" font-family="Tahoma, sans-serif" font-size="12" font-weight="bold" lengthAdjust="spacingAndGlyphs" textLength="108" x="942.9812" y="98.7456">prettify/colors.d</text><ellipse cx="1252.3119" cy="448.0704" fill="#F8F8F8" rx="95.8519" ry="21.5704" style="stroke: #383838; stroke-width: 0.5;"/><text fill="#000000" font-family="Tahoma, sans-serif" font-size="12" lengthAdjust="spacingAndGlyphs" textLength="171" x="1166.8119" y="451.8126">prettify/prettify.transformation</text><ellipse cx="996.7188" cy="148.242" fill="#F8F8F8" rx="48.2548" ry="13.242" style="stroke: #383838; stroke-width: 0.5;"/><text fill="#000000" font-family="Tahoma, sans-serif" font-size="12" font-weight="bold" lengthAdjust="spacingAndGlyphs" textLength="64" x="964.7188" y="151.9842">regexps.d</text><ellipse cx="996.9776" cy="206.2027" fill="#F8F8F8" rx="94.0136" ry="21.2027" style="stroke: #383838; stroke-width: 0.5;"/><text fill="#000000" font-family="Tahoma, sans-serif" font-size="12" font-weight="bold" lengthAdjust="spacingAndGlyphs" textLength="167" x="913.4776" y="209.9449">simplify.transformation.d</text><ellipse cx="996.8141" cy="267.17" fill="#F8F8F8" rx="68.8501" ry="16.17" style="stroke: #383838; stroke-width: 0.5;"/><text fill="#000000" font-family="Tahoma, sans-serif" font-size="12" font-weight="bold" lengthAdjust="spacingAndGlyphs" textLength="110" x="941.8141" y="270.9122">simplify/simplify</text><ellipse cx="996.9022" cy="324.1876" fill="#F8F8F8" rx="73.9382" ry="17.1876" style="stroke: #383838; stroke-width: 0.5;"/><text fill="#000000" font-family="Tahoma, sans-serif" font-size="12" font-weight="bold" lengthAdjust="spacingAndGlyphs" textLength="122" x="935.9022" y="327.9298">simplify/simplify.d</text><ellipse cx="1252.4355" cy="515.9951" fill="#F8F8F8" rx="100.4755" ry="22.4951" style="stroke: #383838; stroke-width: 0.5;"/><text fill="#000000" font-family="Tahoma, sans-serif" font-size="12" lengthAdjust="spacingAndGlyphs" textLength="181" x="1161.9355" y="519.7373">simplify/simplify.transformation</text><ellipse cx="1252.5935" cy="34.242" fill="#F8F8F8" rx="46.1335" ry="13.242" style="stroke: #383838; stroke-width: 0.5;"/><text fill="#000000" font-family="Tahoma, sans-serif" font-size="12" font-weight="bold" lengthAdjust="spacingAndGlyphs" textLength="61" x="1222.0935" y="37.9842">simplur.d</text><ellipse cx="147.3132" cy="478.242" fill="#F8F8F8" rx="17.8492" ry="13.242" style="stroke: #383838; stroke-width: 0.5;"/><text fill="#000000" font-family="Tahoma, sans-serif" font-size="12" font-weight="bold" lengthAdjust="spacingAndGlyphs" textLength="21" x="136.8132" y="481.9842">src</text><ellipse cx="1474.0433" cy="628.242" fill="#F8F8F8" rx="51.0833" ry="13.242" style="stroke: #383838; stroke-width: 0.5;"/><text fill="#000000" font-family="Tahoma, sans-serif" font-size="12" lengthAdjust="spacingAndGlyphs" textLength="68" x="1440.0433" y="631.9842">src/regexps</text><ellipse cx="997.0066" cy="496.2085" fill="#F8F8F8" rx="61.5426" ry="14.7085" style="stroke: #383838; stroke-width: 0.5;"/><text fill="#000000" font-family="Tahoma, sans-serif" font-size="12" lengthAdjust="spacingAndGlyphs" textLength="92" x="951.0066" y="499.9507">transformations</text><ellipse cx="1252.2736" cy="297.0627" fill="#F8F8F8" rx="90.8136" ry="20.5627" style="stroke: #383838; stroke-width: 0.5;"/><text fill="#000000" font-family="Tahoma, sans-serif" font-size="12" font-weight="bold" lengthAdjust="spacingAndGlyphs" textLength="160" x="1172.2736" y="300.8049">transformations/index.d</text><ellipse cx="1252.5571" cy="92.0194" fill="#F8F8F8" rx="93.0971" ry="21.0194" style="stroke: #383838; stroke-width: 0.5;"/><text fill="#000000" font-family="Tahoma, sans-serif" font-size="12" font-weight="bold" lengthAdjust="spacingAndGlyphs" textLength="165" x="1170.0571" y="95.7616">transformations/simplify</text><ellipse cx="1252.5816" cy="159.1243" fill="#F8F8F8" rx="98.6216" ry="22.1243" style="stroke: #383838; stroke-width: 0.5;"/><text fill="#000000" font-family="Tahoma, sans-serif" font-size="12" font-weight="bold" lengthAdjust="spacingAndGlyphs" textLength="177" x="1164.0816" y="162.8665">transformations/simplify.d</text><!--link <b>compress/compress</b> to compress-tag--><path d="M1333.67,222.813 C1423.98,224.036 1573.7,233.868 1692.96,280 C1718.64,289.932 1745.08,306.683 1763.93,319.966 " fill="none" id="&lt;b&gt;compress/compress&lt;/b&gt;-compress-tag" style="stroke: #000000; stroke-width: 1.0;"/><polygon fill="#000000" points="1768.08,322.916,1763.0687,314.4374,1764.007,320.0159,1758.4285,320.9542,1768.08,322.916" style="stroke: #000000; stroke-width: 1.0;"/><!--link compress/compress.transformation to compress-tag--><path d="M1365.71,368.835 C1479.06,365.642 1649.39,356.488 1735.88,348.451 " fill="none" id="compress/compress.transformation-compress-tag" style="stroke: #000000; stroke-width: 0.5;"/><polygon fill="#000000" points="1740.95,347.972,1731.613,344.8382,1735.9723,348.4433,1732.3672,352.8026,1740.95,347.972" style="stroke: #000000; stroke-width: 0.5;"/><!--link compress/compress.transformation to compress-tag--><path d="M1351.96,354.896 C1464.73,346.351 1645.49,337.742 1735.63,337.04 " fill="none" id="compress/compress.transformation-compress-tag-1" style="stroke: #000000; stroke-width: 0.5;"/><polygon fill="#000000" points="1740.65,337.008,1731.6273,333.0595,1735.6501,337.0366,1731.673,341.0594,1740.65,337.008" style="stroke: #000000; stroke-width: 0.5;"/><!--link helpers to linebreak/linebreak.helper--><path d="M176.644,585.7798 C216.36,589.1923 290.386,590.3107 348.027,588.9542 " fill="none" id="helpers-linebreak/linebreak.helper" style="stroke: #000000; stroke-width: 0.5;"/><polygon fill="#000000" points="353.2,588.8246,344.1023,585.0521,348.2016,588.9503,344.3034,593.0496,353.2,588.8246" style="stroke: #000000; stroke-width: 0.5;"/><!--link helpers to linebreak/linebreak.helper--><path d="M176.904,574.4007 C216.923,571.2703 291.407,570.6981 349.071,572.5011 " fill="none" id="helpers-linebreak/linebreak.helper-1" style="stroke: #000000; stroke-width: 0.5;"/><polygon fill="#000000" points="354.244,572.6708,345.3803,568.3772,349.2467,572.5065,345.1174,576.3729,354.244,572.6708" style="stroke: #000000; stroke-width: 0.5;"/><!--link <b>helpers/index.d</b> to linebreak/linebreak.helper--><path d="M429.964,437.558 C429.964,477.175 429.964,516.792 429.964,556.4099 " fill="none" id="&lt;b&gt;helpers/index.d&lt;/b&gt;-linebreak/linebreak.helper" style="stroke: #000000; stroke-width: 1.0;"/><polygon fill="#000000" points="429.964,561.7461,433.964,552.7461,429.964,556.7461,425.964,552.7461,429.964,561.7461" style="stroke: #000000; stroke-width: 1.0;"/><!--link <b>lib</b> to helpers--><path d="M147.464,541.7158 C147.464,548.3925 147.464,555.0692 147.464,561.7459 " fill="none" id="&lt;b&gt;lib&lt;/b&gt;-helpers" style="stroke: #000000; stroke-width: 1.0;"/><polygon fill="#000000" points="147.464,566.8516,151.464,557.8516,147.464,561.8516,143.464,557.8516,147.464,566.8516" style="stroke: #000000; stroke-width: 1.0;"/><!--link <b>lib</b> to transformations--><path d="M162.467,528.455 C252.402,524.953 750.753,505.548 930.937,498.532 " fill="none" id="&lt;b&gt;lib&lt;/b&gt;-transformations" style="stroke: #000000; stroke-width: 1.0;"/><polygon fill="#000000" points="936.175,498.328,927.0253,494.6834,931.1788,498.5237,927.3385,502.6773,936.175,498.328" style="stroke: #000000; stroke-width: 1.0;"/><!--link <b>lib/compress</b> to compress-tag--><path d="M1529.17,281.797 C1573.55,287.118 1637.79,296.138 1692.96,309 C1707.42,312.37 1722.82,316.842 1737.02,321.338 " fill="none" id="&lt;b&gt;lib/compress&lt;/b&gt;-compress-tag" style="stroke: #000000; stroke-width: 1.0;"/><polygon fill="#000000" points="1741.78,322.862,1734.415,316.3231,1737.015,321.347,1731.9911,323.9471,1741.78,322.862" style="stroke: #000000; stroke-width: 1.0;"/><!--link <b>lib/index.d</b> to transformations--><path d="M996.964,457.14 C996.964,463.451 996.964,469.762 996.964,476.074 " fill="none" id="&lt;b&gt;lib/index.d&lt;/b&gt;-transformations" style="stroke: #000000; stroke-width: 1.0;"/><polygon fill="#000000" points="996.964,481.375,1000.964,472.375,996.964,476.375,992.964,472.375,996.964,481.375" style="stroke: #000000; stroke-width: 1.0;"/><!--link linebreak/linebreak.helper to linebreak/linebreak.transformation--><path d="M509.637,587.147 C657.046,592.5236 975.045,595.1052 1142.79,592.5456 " fill="none" id="linebreak/linebreak.helper-linebreak/linebreak.transformation" style="stroke: #000000; stroke-width: 0.5;"/><polygon fill="#000000" points="1148.2,592.4604,1139.1328,588.6153,1143.2007,592.5461,1139.2699,596.6141,1148.2,592.4604" style="stroke: #000000; stroke-width: 0.5;"/><!--link linebreak/linebreak.helper to linebreak/linebreak.transformation--><path d="M511.131,575.9713 C659.725,572.7853 977.92,574.8842 1144.61,579.9197 " fill="none" id="linebreak/linebreak.helper-linebreak/linebreak.transformation-1" style="stroke: #000000; stroke-width: 0.5;"/><polygon fill="#000000" points="1149.99,580.0848,1141.108,575.8293,1144.992,579.9419,1140.8794,583.826,1149.99,580.0848" style="stroke: #000000; stroke-width: 0.5;"/><!--link linebreak/linebreak.transformation to lib/regexps--><path d="M1358.07,582.7109 C1380.18,581.8046 1402.56,580.8868 1421.62,580.1052 " fill="none" id="linebreak/linebreak.transformation-lib/regexps" style="stroke: #000000; stroke-width: 0.5;"/><polygon fill="#000000" points="1426.91,579.8884,1417.7572,576.2516,1421.914,580.0884,1418.0772,584.2452,1426.91,579.8884" style="stroke: #000000; stroke-width: 0.5;"/><!--link linebreak/linebreak.transformation to src/regexps--><path d="M1335.2,602.2669 C1366.28,608.0726 1400.57,614.4784 1427.17,619.4464 " fill="none" id="linebreak/linebreak.transformation-src/regexps" style="stroke: #000000; stroke-width: 0.5;"/><polygon fill="#000000" points="1432.38,620.4202,1424.2633,614.8417,1427.4643,619.5058,1422.8003,622.7068,1432.38,620.4202" style="stroke: #000000; stroke-width: 0.5;"/><!--link prettify/prettify.transformation to ColorGroup.d--><path d="M1335.07,436.959 C1360.34,433.637 1388.29,430.064 1413.96,427 C1470.8,420.217 1535.91,413.293 1580.94,408.636 " fill="none" id="prettify/prettify.transformation-ColorGroup.d" style="stroke: #000000; stroke-width: 0.5;"/><polygon fill="#000000" points="1586.06,408.108,1576.6964,405.0548,1581.0865,408.6222,1577.5191,413.0124,1586.06,408.108" style="stroke: #000000; stroke-width: 0.5;"/><!--link prettify/prettify.transformation to prettify/colors--><path d="M1336.14,458.635 C1363.36,459.764 1392.97,460.165 1417.65,459.673 " fill="none" id="prettify/prettify.transformation-prettify/colors" style="stroke: #000000; stroke-width: 0.5;"/><polygon fill="#000000" points="1422.84,459.555,1413.7509,455.7618,1417.8413,459.6693,1413.9338,463.7597,1422.84,459.555" style="stroke: #000000; stroke-width: 0.5;"/><!--link prettify/prettify.transformation to prettify/colors--><path d="M1343.69,441.183 C1370.74,441.442 1399.41,442.487 1422.87,444.164 " fill="none" id="prettify/prettify.transformation-prettify/colors-1" style="stroke: #000000; stroke-width: 0.5;"/><polygon fill="#000000" points="1428.1,444.555,1419.422,439.8974,1423.1138,444.1835,1418.8277,447.8753,1428.1,444.555" style="stroke: #000000; stroke-width: 0.5;"/><!--link prettify/prettify.transformation to src/regexps--><path d="M1329.84,460.886 C1343.02,465.81 1355.75,472.611 1365.96,482 C1408.56,521.152 1373.53,561.62 1413.96,603 C1419.4,608.5598 1426.26,612.9471 1433.37,616.3877 " fill="none" id="prettify/prettify.transformation-src/regexps" style="stroke: #000000; stroke-width: 0.5;"/><polygon fill="#000000" points="1438.31,618.6211,1431.7721,611.2553,1433.7582,616.552,1428.4615,618.5381,1438.31,618.6211" style="stroke: #000000; stroke-width: 0.5;"/><!--link prettify/prettify.transformation to lib/regexps--><path d="M1320.88,463.138 C1336.23,467.994 1352.09,474.198 1365.96,482 C1403.85,503.309 1439.71,540.056 1458.77,561.3728 " fill="none" id="prettify/prettify.transformation-lib/regexps" style="stroke: #000000; stroke-width: 0.5;"/><polygon fill="#000000" points="1462.12,565.1664,1459.1474,555.7769,1458.805,561.4233,1453.1585,561.0809,1462.12,565.1664" style="stroke: #000000; stroke-width: 0.5;"/><!--link simplify/simplify.transformation to simplur--><path d="M1352.85,517.772 C1406.83,513.26 1474.5,504.168 1533.96,491 C1606.29,474.985 1622.33,463.334 1692.96,441 C1716.23,433.644 1742.6,425.257 1762.04,417.21 " fill="none" id="simplify/simplify.transformation-simplur" style="stroke: #000000; stroke-width: 0.5;"/><polygon fill="#000000" points="1766.83,415.172,1756.9824,415.0148,1762.2291,417.1295,1760.1144,422.3762,1766.83,415.172" style="stroke: #000000; stroke-width: 0.5;"/><!--link simplify/simplify.transformation to simplur--><path d="M1324.67,500.311 C1381.72,492.459 1463.59,482.584 1533.96,467 C1606.29,450.985 1622.33,439.334 1692.96,417 C1713.55,410.49 1736.57,403.172 1755.08,398.566 " fill="none" id="simplify/simplify.transformation-simplur-1" style="stroke: #000000; stroke-width: 0.5;"/><polygon fill="#000000" points="1760.17,397.342,1750.4835,395.561,1755.3091,398.513,1752.3571,403.3385,1760.17,397.342" style="stroke: #000000; stroke-width: 0.5;"/><!--link <b>src</b> to helpers--><path d="M129.382,479.227 C86.2394,482.908 -17.1065,496.581 10.9643,542 C31.0352,574.4754 76.9379,581.541 109.975,582.0702 " fill="none" id="&lt;b&gt;src&lt;/b&gt;-helpers" style="stroke: #000000; stroke-width: 1.0;"/><polygon fill="#000000" points="115.161,582.1019,106.1852,578.048,110.1611,582.0719,106.1372,586.0478,115.161,582.1019" style="stroke: #000000; stroke-width: 1.0;"/><!--link <b>src</b> to transformations--><path d="M165.777,478.368 C263.898,480.452 752.071,490.82 930.509,494.61 " fill="none" id="&lt;b&gt;src&lt;/b&gt;-transformations" style="stroke: #000000; stroke-width: 1.0;"/><polygon fill="#000000" points="935.697,494.72,926.7848,490.5281,930.6981,494.6129,926.6133,498.5262,935.697,494.72" style="stroke: #000000; stroke-width: 1.0;"/><!--link transformations to compress/compress.transformation--><path d="M1058.64,495.509 C1069.88,492.012 1081.16,487.195 1090.96,481 C1118.11,463.852 1112.9,445.755 1138.96,427 C1159,412.587 1184.02,401.368 1205.38,392.291 " fill="none" id="transformations-compress/compress.transformation" style="stroke: #000000; stroke-width: 0.5;"/><polygon fill="#000000" points="1210.16,390.268,1200.3129,390.0816,1205.5533,392.2119,1203.4231,397.4523,1210.16,390.268" style="stroke: #000000; stroke-width: 0.5;"/><!--link transformations to compress/compress.transformation--><path d="M1023.23,482.815 C1042.88,477.047 1070.21,470.108 1090.96,457 C1118.11,439.852 1112.9,421.755 1138.96,403 C1147.33,396.978 1156.57,391.514 1166.06,386.694 " fill="none" id="transformations-compress/compress.transformation-1" style="stroke: #000000; stroke-width: 0.5;"/><polygon fill="#000000" points="1170.73,384.38,1160.8893,384.7807,1166.2473,386.5949,1164.4331,391.9529,1170.73,384.38" style="stroke: #000000; stroke-width: 0.5;"/><!--link transformations to linebreak/linebreak.transformation--><path d="M1013.91,510.067 C1039.92,525.265 1093.15,546.7521 1138.96,563 C1146.41,565.6395 1154.16,568.2995 1161.95,570.8732 " fill="none" id="transformations-linebreak/linebreak.transformation" style="stroke: #000000; stroke-width: 0.5;"/><polygon fill="#000000" points="1166.81,572.4636,1159.5031,565.8598,1162.0586,570.9066,1157.0119,573.462,1166.81,572.4636" style="stroke: #000000; stroke-width: 0.5;"/><!--link transformations to linebreak/linebreak.transformation--><path d="M1045.65,504.902 C1072.84,514.33 1107.64,527.89 1138.96,539 C1161.51,546.9956 1186.87,555.1792 1207.79,562.8546 " fill="none" id="transformations-linebreak/linebreak.transformation-1" style="stroke: #000000; stroke-width: 0.5;"/><polygon fill="#000000" points="1212.74,564.6904,1205.6984,557.8045,1208.0535,562.9478,1202.9102,565.3029,1212.74,564.6904" style="stroke: #000000; stroke-width: 0.5;"/><!--link transformations to prettify/prettify.transformation--><path d="M1056.76,492.602 C1097.66,486.547 1151.96,476.263 1192.83,466.831 " fill="none" id="transformations-prettify/prettify.transformation" style="stroke: #000000; stroke-width: 0.5;"/><polygon fill="#000000" points="1197.74,465.685,1188.0692,463.8207,1192.8692,466.8141,1189.8758,471.6141,1197.74,465.685" style="stroke: #000000; stroke-width: 0.5;"/><!--link transformations to prettify/prettify.transformation--><path d="M1030.07,483.69 C1062.21,475.167 1113.2,464.684 1158.15,456.953 " fill="none" id="transformations-prettify/prettify.transformation-1" style="stroke: #000000; stroke-width: 0.5;"/><polygon fill="#000000" points="1163.32,456.072,1153.7746,453.6459,1158.3915,456.9146,1155.1228,461.5315,1163.32,456.072" style="stroke: #000000; stroke-width: 0.5;"/><!--link transformations to simplify/simplify.transformation--><path d="M1040.39,506.27 C1069.53,510.292 1109.55,514.1 1146.91,516.627 " fill="none" id="transformations-simplify/simplify.transformation" style="stroke: #000000; stroke-width: 0.5;"/><polygon fill="#000000" points="1151.92,516.96,1143.2023,512.3771,1146.9308,516.6314,1142.6766,520.3598,1151.92,516.96" style="stroke: #000000; stroke-width: 0.5;"/><!--link transformations to simplify/simplify.transformation--><path d="M1057.08,492.916 C1090.55,494.184 1132.91,497.282 1169.54,501.057 " fill="none" id="transformations-simplify/simplify.transformation-1" style="stroke: #000000; stroke-width: 0.5;"/><polygon fill="#000000" points="1174.9,501.618,1166.3592,496.7134,1169.9265,501.1037,1165.5363,504.671,1174.9,501.618" style="stroke: #000000; stroke-width: 0.5;"/><!--link <b>transformations/index.d</b> to compress/compress.transformation--><path d="M1252.46,317.67 C1252.46,323.965 1252.46,330.261 1252.46,336.556 " fill="none" id="&lt;b&gt;transformations/index.d&lt;/b&gt;-compress/compress.transformation" style="stroke: #000000; stroke-width: 1.0;"/><polygon fill="#000000" points="1252.46,341.844,1256.46,332.844,1252.46,336.844,1248.46,332.844,1252.46,341.844" style="stroke: #000000; stroke-width: 1.0;"/><!--link <b>transformations/index.d</b> to linebreak/linebreak.transformation--><path d="M1168.63,305.078 C1147.14,311.625 1126.78,322.877 1114.96,342 C1091.95,379.24 1091.95,501.76 1114.96,539 C1124.56,554.5312 1139.69,565.1196 1156.46,572.318 " fill="none" id="&lt;b&gt;transformations/index.d&lt;/b&gt;-linebreak/linebreak.transformation" style="stroke: #000000; stroke-width: 1.0;"/><polygon fill="#000000" points="1161.23,574.2598,1154.4031,567.161,1156.5992,572.3742,1151.386,574.5703,1161.23,574.2598" style="stroke: #000000; stroke-width: 1.0;"/><!--link <b>transformations/index.d</b> to prettify/prettify.transformation--><path d="M1168.63,305.078 C1147.14,311.625 1126.78,322.877 1114.96,342 C1103.28,360.903 1103.28,373.097 1114.96,392 C1127.43,412.163 1148.68,425.066 1170.79,433.323 " fill="none" id="&lt;b&gt;transformations/index.d&lt;/b&gt;-prettify/prettify.transformation" style="stroke: #000000; stroke-width: 1.0;"/><polygon fill="#000000" points="1175.52,435.016,1168.3955,428.2158,1170.8127,433.3302,1165.6983,435.7474,1175.52,435.016" style="stroke: #000000; stroke-width: 1.0;"/><!--link <b>transformations/index.d</b> to simplify/simplify.transformation--><path d="M1168.63,305.078 C1147.14,311.625 1126.78,322.877 1114.96,342 C1085.06,390.393 1085.06,421.607 1114.96,470 C1124.88,486.049 1140.78,496.644 1158.31,503.602 " fill="none" id="&lt;b&gt;transformations/index.d&lt;/b&gt;-simplify/simplify.transformation" style="stroke: #000000; stroke-width: 1.0;"/><polygon fill="#000000" points="1163.29,505.47,1156.2696,498.5625,1158.6089,503.713,1153.4584,506.0522,1163.29,505.47" style="stroke: #000000; stroke-width: 1.0;"/><!--link _Color_d to <b>compress.transformation.d</b>--><!--link <b>compress.transformation.d</b> to <b>compress/compress.d</b>--><!--link <b>compress/compress.d</b> to <b>Group</b>--><!--link <b>Group</b> to <b>Group.d</b>--><!--link <b>Group.d</b> to <b>helper/linebreak-handler.helper</b>--><!--link _Color_d to <b>helper/linebreak-handler.helper.d</b>--><!--link <b>helper/linebreak-handler.helper.d</b> to <b>helpers/linebreak-handler.helper</b>--><!--link <b>helpers/linebreak-handler.helper</b> to <b>helpers/linebreak-handler.helper.d</b>--><!--link <b>helpers/linebreak-handler.helper.d</b> to <b>lib/colors</b>--><!--link <b>lib/colors</b> to <b>lib/colors.d</b>--><!--link <b>lib/colors.d</b> to <b>lib/compress.d</b>--><!--link <b>helper/linebreak-handler.helper.d</b> to <b>lib/simplify</b>--><!--link <b>lib/simplify</b> to <b>lib/simplify.d</b>--><!--link <b>lib/simplify.d</b> to <b>linebreak.helper.d</b>--><!--link <b>linebreak.helper.d</b> to <b>linebreak.transformation.d</b>--><!--link <b>linebreak.transformation.d</b> to <b>linebreak/linebreak-handler.helper</b>--><!--link <b>linebreak/linebreak-handler.helper</b> to <b>linebreak/linebreak-handler.helper.d</b>--><!--link <b>lib/simplify</b> to <b>prettify.transformation.d</b>--><!--link <b>prettify.transformation.d</b> to <b>prettify/colors.d</b>--><!--link <b>prettify/colors.d</b> to <b>regexps.d</b>--><!--link <b>regexps.d</b> to <b>simplify.transformation.d</b>--><!--link <b>simplify.transformation.d</b> to <b>simplify/simplify</b>--><!--link <b>simplify/simplify</b> to <b>simplify/simplify.d</b>--><!--link <b>prettify.transformation.d</b> to <b>simplur.d</b>--><!--link <b>simplur.d</b> to <b>transformations/simplify</b>--><!--link <b>transformations/simplify</b> to <b>transformations/simplify.d</b>--><script type="text/plantuml"><![CDATA[
@startuml

scale max 1920 width
left to right direction

skinparam nodesep 24
skinparam ranksep 48
skinparam monochrome true
skinparam shadowing false
skinparam defaultFontName Tahoma
skinparam defaultFontSize 12
skinparam roundCorner 6
skinparam dpi 150
skinparam arrowColor black
skinparam arrowThickness 0.5
skinparam packageTitleAlignment left

skinparam usecase {
  borderThickness 0.5
}

skinparam rectangle {
  borderThickness 0.5
}

skinparam component {
  borderThickness 1
}


rectangle "<b>Color.d</b>" as _Color_d
(ColorGroup.d)
(<b>compress.transformation.d</b>)
(<b>compress/compress</b>)
(<b>compress/compress.d</b>)
(compress/compress.transformation)
(compress/compress.transformation)
(<b>Group</b>)
(<b>Group.d</b>)
(<b>helper/linebreak-handler.helper</b>)
(<b>helper/linebreak-handler.helper.d</b>)
(helpers)
(helpers)
(<b>helpers/index.d</b>)
(<b>helpers/linebreak-handler.helper</b>)
(<b>helpers/linebreak-handler.helper.d</b>)
(<b>lib</b>)
(<b>lib/colors</b>)
(<b>lib/colors.d</b>)
(<b>lib/compress</b>)
(<b>lib/compress.d</b>)
(<b>lib/index.d</b>)
(lib/regexps)
(<b>lib/simplify</b>)
(<b>lib/simplify.d</b>)
(<b>linebreak.helper.d</b>)
(<b>linebreak.transformation.d</b>)
(<b>linebreak/linebreak-handler.helper</b>)
(<b>linebreak/linebreak-handler.helper.d</b>)
(linebreak/linebreak.helper)
(linebreak/linebreak.helper)
(linebreak/linebreak.transformation)
(linebreak/linebreak.transformation)
(<b>prettify.transformation.d</b>)
(prettify/colors)
(prettify/colors)
(<b>prettify/colors.d</b>)
(prettify/prettify.transformation)
(prettify/prettify.transformation)
(<b>regexps.d</b>)
(<b>simplify.transformation.d</b>)
(<b>simplify/simplify</b>)
(<b>simplify/simplify.d</b>)
(simplify/simplify.transformation)
(simplify/simplify.transformation)
(<b>simplur.d</b>)
(<b>src</b>)
(src/regexps)
(transformations)
(transformations)
(<b>transformations/index.d</b>)
(<b>transformations/simplify</b>)
(<b>transformations/simplify.d</b>)

package "Dependencies" {
  [compress-tag]
  [simplur]
}

(<b>compress/compress</b>) ----[thickness=1]> [compress-tag]
(compress/compress.transformation) ----> [compress-tag]
(compress/compress.transformation) ----> [compress-tag]
(helpers) --> (linebreak/linebreak.helper)
(helpers) --> (linebreak/linebreak.helper)
(<b>helpers/index.d</b>) -[thickness=1]> (linebreak/linebreak.helper)
(<b>lib</b>) -[thickness=1]> (helpers)
(<b>lib</b>) -[thickness=1]> (transformations)
(<b>lib/compress</b>) ---[thickness=1]> [compress-tag]
(<b>lib/index.d</b>) -[thickness=1]> (transformations)
(linebreak/linebreak.helper) ----> (linebreak/linebreak.transformation)
(linebreak/linebreak.helper) ----> (linebreak/linebreak.transformation)
(linebreak/linebreak.transformation) --> (lib/regexps)
(linebreak/linebreak.transformation) --> (src/regexps)
(prettify/prettify.transformation) ---> (ColorGroup.d)
(prettify/prettify.transformation) --> (prettify/colors)
(prettify/prettify.transformation) --> (src/regexps)
(prettify/prettify.transformation) --> (lib/regexps)
(prettify/prettify.transformation) --> (prettify/colors)
(simplify/simplify.transformation) ----> [simplur]
(simplify/simplify.transformation) ----> [simplur]
(<b>src</b>) -[thickness=1]> (helpers)
(<b>src</b>) -[thickness=1]> (transformations)
(transformations) --> (compress/compress.transformation)
(transformations) --> (linebreak/linebreak.transformation)
(transformations) --> (prettify/prettify.transformation)
(transformations) --> (simplify/simplify.transformation)
(transformations) --> (compress/compress.transformation)
(transformations) --> (linebreak/linebreak.transformation)
(transformations) --> (prettify/prettify.transformation)
(transformations) --> (simplify/simplify.transformation)
(<b>transformations/index.d</b>) -[thickness=1]> (compress/compress.transformation)
(<b>transformations/index.d</b>) -[thickness=1]> (linebreak/linebreak.transformation)
(<b>transformations/index.d</b>) -[thickness=1]> (prettify/prettify.transformation)
(<b>transformations/index.d</b>) -[thickness=1]> (simplify/simplify.transformation)

@enduml


' View and edit on https://arkit.pro
]]></script></g></svg>